<mxfile host="app.diagrams.net" modified="2023-06-21T11:43:46.077Z" agent="Mozilla/5.0 (Windows NT 10.0; Win64; x64; rv:109.0) Gecko/20100101 Firefox/114.0" version="21.3.8" etag="t1zVjSPYNvZxck4UDRiU" type="github">
  <diagram name="Page-1" id="DNS7m5LNjoMew83iQ-z5">
    <mxGraphModel>
      <root>
        <mxCell id="0" />
        <mxCell id="1" parent="0" />
      </root>
    </mxGraphModel>
  </diagram>
</mxfile>
